<?xml version="1.0" encoding="utf-8"?>

<!DOCTYPE svg PUBLIC "-//W3C//DTD SVG 1.1//EN" "http://www.w3.org/Graphics/SVG/1.1/DTD/svg11.dtd">
<!-- Uploaded to: SVG Repo, www.svgrepo.com, Generator: SVG Repo Mixer Tools -->
<svg fill="currentColor" height="800px" width="800px" version="1.1" id="_x32_" xmlns="http://www.w3.org/2000/svg" xmlns:xlink="http://www.w3.org/1999/xlink" 
	 viewBox="0 0 512 512"  xml:space="preserve">
<style type="text/css">
	.st0{fill:#000000;}
</style>
<g>
	<path class="st0" d="M0,45.178v421.644h512V45.178H0z M471.841,426.662H40.159V85.329h431.682V426.662z"/>
	<path class="st0" d="M326.128,207.728c-4.148-6.289-11.183-10.077-18.72-10.069c-7.544,0.007-14.57,3.803-18.71,10.1
		l-72.226,109.914l-39.862-45.178c-4.619-5.238-11.426-8.022-18.397-7.52c-6.971,0.486-13.308,4.211-17.142,10.053L74.17,376.96
		h363.659L326.128,207.728z"/>
	<path class="st0" d="M174.972,230.713c25.102,0,45.453-20.35,45.453-45.461c0-25.102-20.35-45.452-45.453-45.452
		c-25.11,0-45.46,20.35-45.46,45.452C129.511,210.363,149.862,230.713,174.972,230.713z"/>
</g>
</svg>